<?xml version="1.0" encoding="UTF-8"?>
<svg width="152px" height="152px" viewBox="0 0 152 152" version="1.1" xmlns="http://www.w3.org/2000/svg" xmlns:xlink="http://www.w3.org/1999/xlink">
    <title>Safari Tab Icon</title>
    <g id="Safari-Tab-Icon" stroke="none" stroke-width="1" fill="none" fill-rule="evenodd">
        <path d="M105.272727,29.5523849 C97.412235,20.3815206 88.5652979,12.123411 78.8954545,4.93070968 C77.1419097,3.68976344 74.8071812,3.68976344 73.0536364,4.93070968 C63.4016004,12.1264069 54.5718522,20.38441 46.7272727,29.5523849 C29.2336364,49.8475882 20,71.2420882 20,91.4280047 C20,122.671855 45.072054,148 76,148 C106.927946,148 132,122.671855 132,91.4280047 C132,71.2420882 122.766364,49.8475882 105.272727,29.5523849 Z M76,137.92 C50.6348875,137.891597 30.0794186,117.141779 30.0512821,91.5368421 C30.0512821,54.6686737 65.4509402,23.8947368 76,15.52 C86.5490598,23.8947368 121.948718,54.6557895 121.948718,91.5368421 C121.920581,117.141779 101.365112,137.891597 76,137.92 Z M111.8178,96.4065667 C109.094912,111.661438 97.1880718,123.601496 81.9783232,126.329291 C81.6964077,126.37459 81.4114547,126.398229 81.1259498,126.4 C78.4594246,126.399305 76.2385752,124.348616 76.0178244,121.683258 C75.7970735,119.0179 77.6501245,116.627771 80.2799853,116.185777 C90.8994041,114.392342 99.9102084,105.354458 101.711088,94.6838406 C102.18538,91.8827865 104.833769,89.997729 107.626431,90.4734467 C110.419092,90.9491644 112.298501,93.6055126 111.824209,96.4065667 L111.8178,96.4065667 Z" id="Shape" fill="#000000" fill-rule="nonzero"></path>
    </g>
</svg>